<svg xmlns="http://www.w3.org/2000/svg" xmlns:xlink="http://www.w3.org/1999/xlink" width="288" height="106" viewBox="0 0 288 106"><defs><style>.a{clip-path:url(#a);}.b{fill:url(#b);}.c,.e,.f{opacity:0.5;}.c{fill:url(#c);}.d{fill:url(#d);}.e{fill:url(#e);}.f{fill:url(#f);}.g{fill:url(#g);}.h{fill:#fff;}.i{fill:#e35928;font-size:35px;font-family:Bauhaus93, 'Bauhaus \39 3';}</style><clipPath id="a"><rect width="288" height="106"/></clipPath><linearGradient id="b" x1="0.5" x2="0.5" y2="1" gradientUnits="objectBoundingBox"><stop offset="0" stop-color="#fa40a9"/><stop offset="1" stop-color="#ff911e"/></linearGradient><linearGradient id="c" x1="0.5" x2="0.5" y2="1" gradientUnits="objectBoundingBox"><stop offset="0" stop-color="#ff004b"/><stop offset="1" stop-color="#ef4444"/></linearGradient><linearGradient id="d" x1="0.287" y1="0.951" x2="0.498" y2="-0.067" gradientUnits="objectBoundingBox"><stop offset="0" stop-color="#f88a12"/><stop offset="1" stop-color="#b22704"/></linearGradient><linearGradient id="e" x1="0.5" x2="0.5" y2="1" gradientUnits="objectBoundingBox"><stop offset="0" stop-color="#b400ff"/><stop offset="1" stop-color="#ef4444"/></linearGradient><linearGradient id="f" x1="0.332" y1="0.795" x2="0.608" y2="0.026" gradientUnits="objectBoundingBox"><stop offset="0" stop-color="#f88a12"/><stop offset="1" stop-color="#cd2d05"/></linearGradient><linearGradient id="g" x1="0.5" y1="0" x2="0.5" y2="1" xlink:href="#f"/></defs><g class="a"><g transform="translate(14.367 6.525)"><g transform="translate(0 0)"><g transform="translate(0 0)"><g transform="translate(0 7.252)"><path class="b" d="M32.385,0C47.812,0,70.951,39.986,63.238,53.314s-53.993,13.329-61.706,0S16.958,0,32.385,0Z" transform="translate(0 25.325) rotate(-23.003)"/><path class="c" d="M14.872,0c20.579-.019,19.3,22.506,12.873,33.606s-15.8,13.153-22.22,2.054S-5.707.019,14.872,0Z" transform="matrix(-0.857, -0.515, 0.515, -0.857, 39.734, 73.394)"/></g><g transform="translate(13.384 0) rotate(7)"><path class="d" d="M29.961,0C44.232,0,65.638,36.992,58.5,49.323s-49.95,12.331-57.086,0S15.689,0,29.961,0Z" transform="matrix(0.656, 0.755, -0.755, 0.656, 45.584, 0)"/><path class="e" d="M1.315,5.791S2.813,20.61,22.568,13,47.426-8.53,52.2,7.123,50.827,45.568,37.974,50.1C32.7,52.442,20.838,44.786,13.725,37.021-5.963,14.008,1.315,5.791,1.315,5.791Z" transform="translate(8.72 26.131)"/><path class="f" d="M28.173,0C34.163,0,69.418,27.877,59.2,45.886c-6.82,6.1-16.779,8.571-26.09,8.132C16.464,53.233,2.159,42.134.671,39.143-3.911,29.933,16.047,0,28.173,0Z" transform="matrix(0.656, 0.755, -0.755, 0.656, 40.806, 1.779)"/></g><circle class="g" cx="3.42" cy="3.42" r="3.42" transform="translate(16.598 19.772)"/><circle class="g" cx="3.42" cy="3.42" r="3.42" transform="translate(83.525 70.735) rotate(-173)"/><circle class="g" cx="1.71" cy="1.71" r="1.71" transform="translate(18.797 13.664)"/></g><g transform="translate(31.321 38.095)"><path class="h" d="M22.236-180.644v-5.619a6.07,6.07,0,0,0,2.3.553q3.147,0,4.08-3.544a6.5,6.5,0,0,1-3.32,1,5.016,5.016,0,0,1-3.959-1.789,6.692,6.692,0,0,1-1.556-4.556v-10.84h6.465v9.269q0,1.539,1.279,1.539,1.228,0,1.228-1.694v-9.112h6.465v15.386A9.893,9.893,0,0,1,32.8-183.1a9.129,9.129,0,0,1-6.982,3.146,9.82,9.82,0,0,1-3.579-.691Z" transform="translate(-19.781 205.53)"/><path class="h" d="M18.671-180.652h6.667v16.086a10.039,10.039,0,0,1-2.139,6.649,8.753,8.753,0,0,1-3.129,2.353,9.226,9.226,0,0,1-3.9.873,9.206,9.206,0,0,1-6.7-2.674,8.831,8.831,0,0,1-2.727-6.56,8.95,8.95,0,0,1,2.71-6.506,8.715,8.715,0,0,1,6.417-2.745q.588,0,1.783.106v7.343a2.659,2.659,0,0,0-1.64-.642,2.391,2.391,0,0,0-1.774.758,2.521,2.521,0,0,0-.74,1.827,2.378,2.378,0,0,0,.767,1.774,2.551,2.551,0,0,0,1.836.74q2.567,0,2.567-3.547Z" transform="translate(7.13 180.652)"/></g></g><text class="i" transform="translate(101.036 60.798)"><tspan x="0" y="0">YourDaily</tspan></text></g></g></svg>